<svg width="60" height="95" viewBox="0 0 60 95" fill="none" xmlns="http://www.w3.org/2000/svg">
<path d="M60 49.2845C60 47.4095 58.5662 45.9757 56.6912 45.9757C54.8162 45.9757 53.3824 47.4095 53.3824 49.2845C53.3824 62.189 42.9044 72.6669 30 72.6669C17.0956 72.6669 6.61765 62.189 6.61765 49.2845C6.61765 47.4095 5.18382 45.9757 3.30882 45.9757C1.43382 45.9757 0 47.4095 0 49.2845C0 64.6154 11.4706 77.5199 26.6912 79.1743V87.9978H14.6691C12.7941 87.9978 11.3603 89.4316 11.3603 91.3066C11.3603 93.1816 12.7941 94.6155 14.6691 94.6155H45.3309C47.2059 94.6155 48.6397 93.1816 48.6397 91.3066C48.6397 89.4316 47.2059 87.9978 45.3309 87.9978H33.3088V79.1743C48.5294 77.5199 60 64.6154 60 49.2845Z" fill="#6FB9C3"/>
<path d="M30 0C19.8296 0 11.5385 8.28256 11.5385 18.4425V48.3701C11.5385 58.6405 19.8296 66.8126 30 66.9231C40.1704 66.9231 48.4615 58.6405 48.4615 48.4806V18.4425C48.4615 8.28256 40.1704 0 30 0Z" fill="#6FB9C3"/>
</svg>
