<svg width="23" height="23" viewBox="0 0 23 23" fill="none" xmlns="http://www.w3.org/2000/svg">
<path d="M18.8601 11.8788C18.8601 11.4188 18.5083 11.067 18.0483 11.067C17.5883 11.067 17.2365 11.4188 17.2365 11.8788C17.2365 15.0447 14.6659 17.6153 11.5001 17.6153C8.33418 17.6153 5.76359 15.0447 5.76359 11.8788C5.76359 11.4188 5.41182 11.067 4.95183 11.067C4.49183 11.067 4.14006 11.4188 4.14006 11.8788C4.14006 15.64 6.95418 18.8059 10.6883 19.2118V21.3765H7.73888C7.27888 21.3765 6.92712 21.7282 6.92712 22.1882C6.92712 22.6482 7.27888 23 7.73888 23H15.2612C15.7212 23 16.073 22.6482 16.073 22.1882C16.073 21.7282 15.7212 21.3765 15.2612 21.3765H12.3118V19.2118C16.0459 18.8059 18.8601 15.64 18.8601 11.8788Z" fill="#6FB9C3"/>
<path d="M11.5 0C9.01063 0 6.98122 2.02941 6.98122 4.51882V11.8518C6.98122 14.3682 9.01063 16.3706 11.5 16.3976C13.9894 16.3976 16.0189 14.3682 16.0189 11.8788V4.51882C16.0189 2.02941 13.9894 0 11.5 0Z" fill="#6FB9C3"/>
</svg>

