<svg width="18" height="27" viewBox="0 0 18 27" fill="none" xmlns="http://www.w3.org/2000/svg">
<path d="M17.1219 14.0641C17.1219 13.529 16.7128 13.1199 16.1777 13.1199C15.6426 13.1199 15.2335 13.529 15.2335 14.0641C15.2335 17.7466 12.2434 20.7366 8.56096 20.7366C4.87849 20.7366 1.88845 17.7466 1.88845 14.0641C1.88845 13.529 1.47928 13.1199 0.944224 13.1199C0.409164 13.1199 0 13.529 0 14.0641C0 18.439 3.27331 22.1215 7.61674 22.5936V25.1115H4.18606C3.651 25.1115 3.24183 25.5207 3.24183 26.0558C3.24183 26.5908 3.651 27 4.18606 27H12.9359C13.4709 27 13.8801 26.5908 13.8801 26.0558C13.8801 25.5207 13.4709 25.1115 12.9359 25.1115H9.50518V22.5936C13.8486 22.1215 17.1219 18.439 17.1219 14.0641Z" fill="white"/>
<path d="M8.56095 0C5.65866 0 3.29266 2.36356 3.29266 5.26285V13.8032C3.29266 16.734 5.65866 19.066 8.56095 19.0975C11.4632 19.0975 13.8292 16.734 13.8292 13.8347V5.26285C13.8292 2.36356 11.4632 0 8.56095 0Z" fill="white"/>
</svg>
