<svg width="35" height="35" viewBox="0 0 35 35" fill="none" xmlns="http://www.w3.org/2000/svg">
<rect width="35" height="35" rx="3" fill="#EBF8FF"/>
<path d="M23.4673 9.76165C23.4673 9.76165 23.8989 6.97601 26.0787 7.08001C28.5747 7.20169 27.9383 10.9592 27.5571 11.9316C27.1759 12.904 25.124 17.8679 24.708 19.157C24.292 20.4461 24.1651 23.2411 22.9853 25.0107C21.7549 26.8566 19.3525 27.3782 18.6084 26.5811C17.8643 25.7839 17.4389 23.9223 17.3854 22.6998C17.3318 21.4773 17.7047 18.7124 17.2814 18.1274C16.8581 17.5424 16.3246 18.8185 15.9523 19.5626C15.5799 20.3067 13.8785 24.8266 13.8785 24.9857C13.8785 25.1448 13.0813 27.6975 11.1672 27.8036C9.25309 27.9097 8.61505 26.1021 8.93433 23.8693C9.28364 20.8501 9.47751 17.815 9.51517 14.776C9.46317 13.4999 9.32953 11.552 9.63841 10.8001C9.94729 10.0482 10.1699 9.31601 11.8713 9.47201C13.5727 9.62801 13.6258 11.3856 13.6258 12.0767C13.5907 12.7681 13.5141 13.4568 13.3965 14.139C13.2925 15.0428 13.0247 16.6907 13.3965 17.0099C13.7683 17.3292 14.4068 15.5212 14.4068 15.5212C14.4068 15.5212 16.2674 11.2145 17.9158 11.1615C19.5106 11.1095 19.936 11.9056 20.3078 14.0324C20.6796 16.1592 20.535 18.0525 20.9978 18.2137C21.4606 18.3749 22.6951 11.3305 23.4673 9.76165Z" fill="#112938"/>
</svg>
