<svg width="35" height="45" viewBox="0 0 35 45" fill="none" xmlns="http://www.w3.org/2000/svg">
<path d="M19.1283 42.7169C18.3308 43.8352 16.6692 43.8352 15.8717 42.7169L10.6614 35.4113C9.71718 34.0874 10.6636 32.25 12.2897 32.25L22.7103 32.25C24.3364 32.25 25.2828 34.0874 24.3386 35.4113L19.1283 42.7169Z" fill="#EBF8FF"/>
<rect width="35" height="35" rx="3" fill="#EBF8FF"/>
<path d="M23.4673 9.76164C23.4673 9.76164 23.8989 6.976 26.0787 7.08C28.5747 7.20168 27.9383 10.9592 27.5571 11.9316C27.1759 12.904 25.124 17.8679 24.708 19.157C24.292 20.4461 24.1651 23.2411 22.9852 25.0106C21.7549 26.8566 19.3525 27.3782 18.6084 26.581C17.8643 25.7839 17.4389 23.9223 17.3854 22.6998C17.3318 21.4772 17.7046 18.7124 17.2814 18.1274C16.8581 17.5424 16.3246 18.8185 15.9522 19.5626C15.5799 20.3067 13.8785 24.8266 13.8785 24.9857C13.8785 25.1448 13.0813 27.6975 11.1672 27.8036C9.25309 27.9096 8.61505 26.1021 8.93433 23.8692C9.28364 20.8501 9.47751 17.815 9.51517 14.776C9.46317 13.4999 9.32953 11.552 9.63841 10.8001C9.94729 10.0482 10.1698 9.31601 11.8713 9.47201C13.5727 9.62801 13.6258 11.3856 13.6258 12.0767C13.5907 12.7681 13.5141 13.4568 13.3964 14.139C13.2924 15.0428 13.0246 16.6906 13.3964 17.0099C13.7682 17.3292 14.4068 15.5212 14.4068 15.5212C14.4068 15.5212 16.2674 11.2145 17.9158 11.1615C19.5106 11.1095 19.936 11.9056 20.3078 14.0324C20.6796 16.1592 20.535 18.0525 20.9978 18.2137C21.4606 18.3749 22.6951 11.3305 23.4673 9.76164Z" fill="#112938"/>
</svg>
