<svg width="35" height="45" viewBox="0 0 35 45" fill="none" xmlns="http://www.w3.org/2000/svg">
<path d="M19.1283 42.7169C18.3308 43.8352 16.6692 43.8352 15.8717 42.7169L10.6614 35.4113C9.71718 34.0874 10.6636 32.25 12.2897 32.25L22.7103 32.25C24.3364 32.25 25.2828 34.0874 24.3386 35.4113L19.1283 42.7169Z" fill="#EBF8FF"/>
<rect width="35" height="35" rx="3" fill="#EBF8FF"/>
<path d="M25.5001 17.9117C25.5001 17.4117 25.1177 17.0294 24.6177 17.0294C24.1177 17.0294 23.7354 17.4117 23.7354 17.9117C23.7354 21.3529 20.9412 24.147 17.5001 24.147C14.0589 24.147 11.2648 21.3529 11.2648 17.9117C11.2648 17.4117 10.8824 17.0294 10.3824 17.0294C9.88241 17.0294 9.50006 17.4117 9.50006 17.9117C9.50006 22 12.5589 25.4412 16.6177 25.8823V28.2353H13.4118C12.9118 28.2353 12.5295 28.6176 12.5295 29.1176C12.5295 29.6176 12.9118 30 13.4118 30H21.5883C22.0883 30 22.4706 29.6176 22.4706 29.1176C22.4706 28.6176 22.0883 28.2353 21.5883 28.2353H18.3824V25.8823C22.4412 25.4412 25.5001 22 25.5001 17.9117Z" fill="#6FB9C3"/>
<path d="M17.5 5C14.7942 5 12.5883 7.20588 12.5883 9.91176V17.8824C12.5883 20.6176 14.7942 22.7941 17.5 22.8235C20.2059 22.8235 22.4118 20.6176 22.4118 17.9118V9.91176C22.4118 7.20588 20.2059 5 17.5 5Z" fill="#6FB9C3"/>
</svg>
