<svg id="Calque_1" data-name="Calque 1" xmlns="http://www.w3.org/2000/svg" viewBox="0 0 50 50"><path d="M35.514,9.157S36.344,3.8,40.536,4c4.8.234,3.576,7.46,2.843,9.33S38.7,24.746,37.9,27.225s-1.044,7.854-3.313,11.257c-2.366,3.55-6.986,4.553-8.417,3.02s-2.249-5.113-2.352-7.464.614-7.668-.2-8.793-1.84,1.329-2.556,2.76-3.988,10.123-3.988,10.429-1.533,5.215-5.214,5.419-4.908-3.272-4.294-7.566A170.535,170.535,0,0,0,8.683,18.8c-.1-2.454-.357-6.2.237-7.646S9.942,8.3,13.214,8.6s3.374,3.68,3.374,5.009a33.269,33.269,0,0,1-.441,3.966c-.2,1.738-.715,4.907,0,5.521s1.943-2.863,1.943-2.863,3.578-8.282,6.748-8.384c3.067-.1,3.885,1.431,4.6,5.521s.437,7.731,1.327,8.041S34.029,12.174,35.514,9.157Z"/></svg>
