<svg width="375" height="786" viewBox="0 0 375 786" fill="none" xmlns="http://www.w3.org/2000/svg">
<g clip-path="url(#clip0)">
<rect width="375" height="786" fill="white"/>
<rect width="375" height="379" fill="#112938"/>
<path d="M201 273.101C144.5 242.223 75 241.238 -43.5 285.912V393H418.5V346.026C308 349.968 257.5 303.979 201 273.101Z" fill="white"/>
<path d="M193.684 391.366C194.813 392.163 194.813 393.837 193.684 394.634L185.653 400.301C184.328 401.236 182.5 400.289 182.5 398.667V387.333C182.5 385.711 184.328 384.764 185.653 385.699L193.684 391.366Z" fill="white"/>
<path d="M28.623 15.4447C32.0071 15.3946 35.276 14.8068 37.9734 13.7632C40.5196 12.8428 43.5635 12.3488 46.6842 12.3493C49.805 12.3498 52.8483 12.8449 55.3934 13.766C55.4574 13.788 55.5296 13.8031 55.6054 13.8105C55.6812 13.8179 55.7592 13.8174 55.8346 13.809C55.9101 13.8007 55.9814 13.7847 56.0445 13.7619C56.1075 13.7392 56.1608 13.7102 56.2013 13.6767C56.2857 13.6082 56.3153 13.5258 56.2842 13.4465C56.2531 13.3672 56.1636 13.2969 56.0341 13.2502C53.299 12.2617 50.0293 11.7309 46.677 11.7313C43.3247 11.7318 40.0555 12.2634 37.3214 13.2527C31.4742 15.3386 25.7774 15.3386 19.907 13.2527C19.8438 13.2301 19.7723 13.2143 19.6968 13.2062C19.6212 13.1982 19.5433 13.1981 19.4677 13.2059C19.3921 13.2137 19.3204 13.2293 19.257 13.2518C19.1936 13.2742 19.1398 13.303 19.099 13.3363C19.0127 13.4043 18.9812 13.4866 19.011 13.5661C19.0408 13.6457 19.1296 13.7162 19.259 13.7632C21.9626 14.8062 25.236 15.3939 28.6246 15.4447H28.623Z" fill="white" stroke="#112938" stroke-miterlimit="10"/>
</g>
<defs>
<clipPath id="clip0">
<rect width="375" height="786" fill="white"/>
</clipPath>
</defs>
</svg>
